<?xml version="1.0" standalone="no"?><!DOCTYPE svg PUBLIC "-//W3C//DTD SVG 1.1//EN" "http://www.w3.org/Graphics/SVG/1.1/DTD/svg11.dtd"><svg t="1613732045625" class="icon" viewBox="0 0 1024 1024" version="1.1" xmlns="http://www.w3.org/2000/svg" p-id="720" width="32" height="32" data-spm-anchor-id="a313x.7781069.0.i6" xmlns:xlink="http://www.w3.org/1999/xlink"><defs><style type="text/css"></style></defs><path d="M266.24 83.9168a49.152 49.152 0 0 0-49.152 49.2544v638.976a49.01888 49.01888 0 0 0 49.152 49.152h393.216a49.05984 49.05984 0 0 0 49.152-49.152v-638.976a49.152 49.152 0 0 0-49.152-49.2544H266.24z m466.8416 142.1312v426.2912l178.176-178.176a49.57184 49.57184 0 0 0 0-69.9392l-178.176-178.176z m-270.25408 79.1552c0 49.152 98.304 45.7728 98.304 116.736 0 76.3904-92.50816 60.416-98.304 27.648-5.81632 32.768-98.304 48.7424-98.304-27.648 0-70.9632 98.304-67.584 98.304-116.736z m0 147.456l49.152 98.304h-98.304l49.152-98.304z m-270.336 45.3632l-79.872 79.872a49.42848 49.42848 0 0 0 0 69.8368l79.872 79.872v-229.5808z m118.24128 347.8528l79.872 79.872a48.56832 48.56832 0 0 0 69.10976 0l79.872-79.872h-228.864z" p-id="721" fill="#3c3c3c"></path></svg>